<svg width="150" height="150" viewBox="0 0 150 150" fill="none" xmlns="http://www.w3.org/2000/svg">
<path d="M89.7234 74.7447V69C89.7234 64.0294 85.694 60 80.7234 60H36C31.0294 60 27 64.0294 27 69V109.979C27 114.949 31.0294 118.979 36 118.979H84.7447C87.4944 118.979 89.7234 116.75 89.7234 114V114" stroke="#1D7DE1" stroke-width="6"/>
<rect x="76.8086" y="75.1914" width="43.617" height="40.8085" rx="6" stroke="#1D7DE1" stroke-width="6"/>
<path d="M41.9788 51.5957C41.9788 48.891 42.3905 46.2128 43.1903 43.7141C43.9901 41.2153 45.1623 38.9448 46.6402 37.0323C48.118 35.1198 49.8725 33.6027 51.8033 32.5677C53.7342 31.5327 55.8037 31 57.8937 31C59.9837 31 62.0532 31.5327 63.9841 32.5677C65.9149 33.6027 67.6694 35.1198 69.1472 37.0323C70.6251 38.9448 71.7973 41.2153 72.5971 43.7141C73.3969 46.2128 73.8086 48.891 73.8086 51.5957" stroke="#1D7DE1" stroke-width="6" stroke-linecap="round"/>
<path d="M86 64.9149C86 62.8249 86.3269 60.7554 86.962 58.8245C87.5972 56.8936 88.5281 55.1392 89.7017 53.6614C90.8752 52.1835 92.2685 51.0112 93.8018 50.2114C95.3352 49.4116 96.9786 49 98.6383 49C100.298 49 101.941 49.4117 103.475 50.2114C105.008 51.0112 106.401 52.1835 107.575 53.6614C108.748 55.1392 109.679 56.8936 110.315 58.8245C110.95 60.7554 111.277 62.8249 111.277 64.9149" stroke="#1D7DE1" stroke-width="6" stroke-linecap="round"/>
</svg>
